<svg width="92" height="18" viewBox="0 0 92 18" xmlns="http://www.w3.org/2000/svg">
    <g fill="#1D1D1F" fill-rule="nonzero">
        <path d="M12.027 9.636 5.453 0H0v17.994h5.711v-9.63l6.575 9.63h5.452V0h-5.71zM26.475 0l-6.921 17.994h5.887l.838-2.384h6.638l.838 2.384h5.888L32.722 0H26.474zm1.14 11.293 1.974-5.62 1.973 5.62h-3.946zM64.12 11.158h8.05V6.835h-8.05V4.413h8.137V0h-13.76v17.994h13.93v-4.407H64.12zM46.64 11.833 42.486 0h-5.881l6.92 17.994h6.229L56.68 0h-5.887zM87.524 11.827l.536-.232c2.049-.873 3.095-2.768 3.095-5.171 0-2.274-.813-3.957-2.414-4.998-1.494-.97-3.423-1.42-6.083-1.42h-7.45V18h5.54v-5.03h1.992L86.113 18H92l-4.463-6.173h-.013zM83.68 8.383h-3.025v-3.79h3.025c1.028 0 1.86.848 1.86 1.895 0 1.047-.832 1.895-1.86 1.895"/>
    </g>
</svg>
